<svg width="271" height="52" xmlns="http://www.w3.org/2000/svg" xmlns:xlink="http://www.w3.org/1999/xlink" overflow="hidden"><defs><clipPath id="clip0"><rect x="0" y="0" width="271" height="52"/></clipPath></defs><g clip-path="url(#clip0)"><path d="M6.8833 43.8028 6.8833 50.8787 0.57762 50.8787 0.57762 25.8485 22.6234 25.8485C24.7414 25.8485 26.5224 26.041 27.8702 26.4742 29.2661 26.9075 30.3732 27.4851 31.2396 28.3034 32.0579 29.0254 32.6355 29.94 33.0206 31.0471 33.4057 32.1542 33.5982 33.4057 33.5982 34.8016 33.5982 36.1975 33.4057 37.449 33.0206 38.5561 32.6355 39.6632 32.0579 40.5778 31.2396 41.2998 30.3732 42.1181 29.2661 42.6957 27.8702 43.129 26.4742 43.5622 24.7414 43.7547 22.6234 43.7547L6.8833 43.8028 6.8833 43.8028ZM22.0458 38.8931C23.2011 38.8931 24.1156 38.7487 24.7895 38.6043 25.4634 38.4599 25.9448 38.1711 26.378 37.786 26.9556 37.1602 27.2925 36.1975 27.2925 34.8497 27.2925 33.502 27.0037 32.5393 26.378 31.9135 25.9929 31.5284 25.4634 31.2396 24.7895 31.0952 24.1156 30.9508 23.2011 30.8545 22.0458 30.8545L6.8833 30.8545 6.8833 38.8931 22.0458 38.8931 22.0458 38.8931Z" fill="#303030" transform="scale(1 1.00027)"/><path d="M61.8535 46.5465C61.2277 45.9689 60.6501 45.4876 60.1687 45.1506 59.6874 44.7655 59.1579 44.5249 58.6766 44.2842 58.1952 44.0917 57.6657 43.9473 57.0881 43.8991 56.5105 43.851 55.8847 43.8028 55.1146 43.8028L45.9689 43.8028 45.9689 50.8787 39.7114 50.8787 39.7114 25.8485 61.9016 25.8485C64.0195 25.8485 65.8005 26.041 67.1483 26.4742 68.5442 26.9075 69.6513 27.4851 70.5178 28.3034 71.3361 29.0254 71.9137 29.94 72.2988 31.0471 72.6838 32.1542 72.8764 33.4057 72.8764 34.8016 72.8764 36.1975 72.6838 37.449 72.2988 38.5561 71.9137 39.6632 71.3361 40.5778 70.5178 41.2998 69.3144 42.4069 67.6297 43.1771 65.3673 43.514 66.1375 43.8028 66.8595 44.1879 67.4371 44.6211 68.0147 45.0544 68.7368 45.632 69.5551 46.354L74.4648 50.8306 66.5707 50.8306 61.8535 46.5465ZM61.2758 38.8931C62.4311 38.8931 63.3457 38.7487 64.0195 38.6043 64.6934 38.4599 65.1748 38.1711 65.608 37.786 66.1856 37.1602 66.5226 36.1975 66.5226 34.8497 66.5226 33.502 66.2337 32.5393 65.608 31.9135 65.2229 31.5284 64.6934 31.2396 64.0195 31.0952 63.3457 30.9508 62.4311 30.8545 61.2758 30.8545L45.9689 30.8545 45.9689 38.8931 61.2758 38.8931 61.2758 38.8931Z" fill="#303030" transform="scale(1 1.00027)"/><path d="M100.121 25.4634C103.587 25.4634 106.523 25.7522 108.785 26.3298 111.096 26.9075 112.925 27.8702 114.321 29.2661 115.331 30.2769 116.102 31.5766 116.583 33.1169 117.064 34.6572 117.305 36.3901 117.305 38.3636 117.305 40.3371 117.064 42.07 116.583 43.6103 116.102 45.1506 115.331 46.4503 114.321 47.4611 112.925 48.857 111.096 49.8679 108.785 50.3973 106.475 50.975 103.538 51.2638 100.025 51.2638L95.1147 51.2638C91.649 51.2638 88.7128 50.975 86.4023 50.3973 84.0918 49.8197 82.2627 48.857 80.8668 47.4611 79.8559 46.4503 79.0858 45.1506 78.6044 43.6103 78.1231 42.07 77.8824 40.3371 77.8824 38.3636 77.8824 36.3901 78.1231 34.6572 78.6044 33.1169 79.0858 31.5766 79.8559 30.2769 80.8668 29.2661 82.2627 27.8702 84.0918 26.8593 86.4023 26.3298 88.7128 25.7522 91.6009 25.4634 95.1147 25.4634 95.1147 25.4634 100.121 25.4634 100.121 25.4634ZM99.5432 45.7764C100.698 45.7764 101.757 45.7764 102.672 45.7282 103.587 45.6801 104.453 45.5838 105.175 45.4876 105.897 45.3913 106.571 45.1988 107.1 45.0062 107.678 44.7655 108.159 44.5249 108.544 44.1879 109.266 43.6103 109.796 42.8401 110.181 41.8774 110.518 40.9147 110.71 39.7595 110.71 38.3636 110.71 36.9677 110.518 35.8124 110.181 34.8497 109.844 33.887 109.315 33.1169 108.544 32.5393 107.678 31.9135 106.571 31.4803 105.127 31.2396 103.683 30.9989 101.806 30.9027 99.4469 30.9027L95.6924 30.9027C93.3337 30.9027 91.4565 30.9989 90.0124 31.2396 88.5684 31.4803 87.4613 31.8654 86.5948 32.5393 85.8728 33.1169 85.3433 33.887 84.9583 34.8497 84.6213 35.8124 84.4288 36.9677 84.4288 38.3636 84.4288 39.7595 84.6213 40.9147 84.9583 41.8774 85.2952 42.8401 85.8247 43.6103 86.5948 44.1879 87.0281 44.5249 87.5094 44.7655 88.0389 45.0062 88.6165 45.2469 89.2423 45.3913 89.9643 45.4876 90.6863 45.5838 91.5527 45.6801 92.4673 45.7282 93.3819 45.7764 94.4408 45.7764 95.5961 45.7764L99.5432 45.7764Z" fill="#303030" transform="scale(1 1.00027)"/><path d="M133.478 20.6018 133.478 50.975 121.3 50.975 121.3 1.54032 132.853 1.54032 163.322 37.4009 191.818 2.98437 204.477 13.9591 204.477 36.3419 192.251 46.8835 192.251 20.313 168.28 51.0231 158.364 51.0231 133.478 20.6018Z" fill="#303030" transform="scale(1 1.00027)"/><path d="M230.422 31.9616 207.991 51.0231 192.203 51.0231 222.672 25.319 195.476 1.54032 212.131 1.54032 231.77 18.6764 251.361 1.54032 267.149 1.54032 239.664 25.4634 269.556 50.975 252.901 50.975 230.422 31.9616Z" fill="#00ADAD" transform="scale(1 1.00027)"/></g></svg>